{
.appVersion = "3227";
.formatVersion = 3;
DisplayStrings = (
"HHHOOHH  OOOAOOO
HHHAHHH  OOOBOOO
HHHBHHH  OOOCOOO 
HHHCHHH  OOODOOO
HHHDHHH  OOOEOOO 
HHHEHHH  OOOFOOO
HHHFHHH  OOOGOOO
HHHGHHH OOOHOOO
HHIHHH  OOOIOOO
HHHJHHH OOOJOOO
HHHKHHH OOOKOOO
HHHLHHH OOOLOOO
HHHMHHH OOOMOOO
HHHNHHH OOONOOO
HHHOHHH OOOPOOO
HHHPHHH OOOQOOO
HHHQHHH OOOROOO
HHHRHHH OOOSOOO
HHHSHHH OOOTOOO
HHHTHHH OOOUOOO
HHHUHHH OOOVOOO
HHHVHHH OOOWOOO
HHHWHHH OOOXOOO
HHHXHHH OOOYOOO
HHHYHHH OOOZOOO
HHHZHHH
",
"hhhoohh  oooaooo
hhhahhh  ooobooo
hhhbhhh  ooocooo 
hhhchhh  ooodooo
hhhdhhh  oooeooo 
hhhehhh  ooofooo
hhhfhhh  ooogooo
hhhghhh ooohooo
hhhihhh  oooiooo
hhhjhhh ooojooo
hhhkhhh oookooo
hhhlhhh ooolooo
hhhmhhh ooomooo
hhhnhhh ooonooo
hhhohhh ooopooo
hhhphhh oooqooo
hhhqhhh ooorooo
hhhrhhh ooosooo
hhhshhh oootooo
hhhthhh ooouooo
hhhuhhh ooovooo
hhhvhhh ooowooo
hhhwhhh oooxooo
hhhxhhh oooyooo
hhhyhhh ooozooo
hhhzhhh
"
);
date = "2023-10-16 11:25:55 +0000";
familyName = Wheatpaste;
fontMaster = (
{
iconName = Bold;
id = m01;
metricValues = (
{
over = 16;
pos = 800;
},
{
over = 16;
pos = 700;
},
{
over = 16;
pos = 500;
},
{
over = -16;
},
{
over = -16;
pos = -200;
},
{
}
);
name = Bold;
userData = {
GSCornerRadius = 85;
};
}
);
glyphs = (
{
glyphname = A;
lastChange = "2023-11-23 11:10:44 +0000";
layers = (
{
layerId = m01;
shapes = (
{
closed = 1;
nodes = (
(70,34,o),
(155,97,o),
(161,125,cs),
(197,289,o),
(241,452,o),
(276,615,cs),
(283,649,o),
(174,547,o),
(168,521,cs),
(135,369,o),
(110,217,o),
(77,65,cs)
);
},
{
closed = 1;
nodes = (
(25,145,o),
(-32,-25,o),
(-1,3,cs),
(18,20,o),
(52,30,o),
(83,28,cs),
(108,27,o),
(131,19,o),
(144,1,cs),
(158,-19,o),
(221,151,o),
(208,169,cs),
(194,188,o),
(168,198,o),
(139,199,cs),
(108,200,o),
(73,189,o),
(49,167,cs)
);
},
{
closed = 1;
nodes = (
(81,407,o),
(24,237,o),
(34,237,cs),
(63,237,o),
(92,237,o),
(121,237,c),
(124,236,o),
(132,244,o),
(136,243,c),
(193,243,o),
(249,242,o),
(305,242,c),
(313,244,o),
(322,237,o),
(330,238,c),
(365,238,o),
(401,238,o),
(437,238,cs),
(449,238,o),
(509,408,o),
(497,408,cs),
(462,408,o),
(426,408,o),
(390,408,c),
(379,405,o),
(370,394,o),
(359,392,c),
(305,391,o),
(251,390,o),
(198,389,c),
(191,392,o),
(189,404,o),
(181,407,c),
(152,407,o),
(123,407,o),
(94,407,cs)
);
},
{
closed = 1;
nodes = (
(386,719,o),
(244,615,o),
(276,615,cs),
(295,615,o),
(279,215,o),
(284,62,cs),
(286,6,o),
(307,-9,o),
(351,4,cs),
(386,14,o),
(507,143,o),
(467,132,cs),
(435,123,o),
(415,132,o),
(414,184,cs),
(409,327,o),
(448,719,o),
(412,719,cs)
);
},
{
closed = 1;
nodes = (
(231,595,o),
(227,503,o),
(237,511,cs),
(266,534,o),
(295,557,o),
(324,580,cs),
(333,587,o),
(339,681,o),
(328,672,cs),
(299,649,o),
(270,626,o),
(241,603,cs)
);
}
);
width = 515;
}
);
unicode = 65;
},
{
glyphname = B;
lastChange = "2023-11-23 11:10:44 +0000";
layers = (
{
layerId = m01;
shapes = (
{
closed = 1;
nodes = (
(300,-3,o),
(423,143,o),
(400,147,cs),
(180,188,o),
(90,195,o),
(51,168,cs),
(28,152,o),
(-31,-19,o),
(-3,0,cs),
(4,5,o),
(82,38,o),
(280,1,cs)
);
},
{
closed = 1;
nodes = (
(175,627,o),
(95,576,o),
(88,535,cs),
(70,431,o),
(43,125,o),
(42,113,cs),
(38,75,o),
(115,128,o),
(118,165,cs),
(118,165,o),
(152,495,o),
(168,585,cs)
);
},
{
closed = 1;
nodes = (
(196,256,o),
(259,244,o),
(325,326,cs),
(429,453,o),
(452,545,o),
(431,607,cs),
(397,710,o),
(245,733,o),
(138,705,cs),
(115,699,o),
(23,543,o),
(52,551,cs),
(158,578,o),
(241,564,o),
(283,523,cs),
(325,482,o),
(325,415,o),
(263,338,cs)
);
},
{
closed = 1;
nodes = (
(117,500,o),
(55,331,o),
(73,323,cs),
(231,262,o),
(305,228,o),
(332,201,cs),
(358,175,o),
(343,156,o),
(319,126,cs),
(243,31,o),
(297,1,o),
(375,98,cs),
(477,226,o),
(490,299,o),
(451,349,cs),
(402,411,o),
(274,438,o),
(135,493,cs)
);
}
);
width = 501;
}
);
unicode = 66;
},
{
glyphname = C;
lastChange = "2023-11-23 11:10:44 +0000";
layers = (
{
guides = (
{
pos = (692,541);
}
);
layerId = m01;
shapes = (
{
closed = 1;
nodes = (
(414,662,o),
(284,596,o),
(233,543,cs),
(12,313,o),
(-10,152,o),
(45,64,cs),
(104,-31,o),
(251,-42,o),
(332,35,cs),
(365,66,o),
(441,249,o),
(404,213,cs),
(340,152,o),
(241,141,o),
(190,186,cs),
(130,241,o),
(139,377,o),
(361,607,cs)
);
},
{
closed = 1;
nodes = (
(413,593,o),
(466,761,o),
(434,727,cs),
(420,713,o),
(373,704,o),
(328,707,cs),
(297,709,o),
(267,716,o),
(250,732,cs),
(234,747,o),
(170,579,o),
(186,564,cs),
(206,546,o),
(244,536,o),
(283,536,cs),
(325,535,o),
(367,545,o),
(386,565,cs)
);
}
);
width = 459;
}
);
unicode = 67;
},
{
glyphname = D;
lastChange = "2023-11-23 11:10:44 +0000";
layers = (
{
layerId = m01;
shapes = (
{
closed = 1;
nodes = (
(96,725,o),
(32,554,o),
(50,545,cs),
(227,465,o),
(311,371,o),
(341,287,cs),
(365,220,o),
(354,159,o),
(328,115,cs),
(286,46,o),
(342,39,o),
(386,111,cs),
(441,201,o),
(461,286,o),
(449,365,cs),
(428,507,o),
(308,628,o),
(114,717,cs)
);
},
{
closed = 1;
nodes = (
(45,48,o),
(125,43,o),
(128,95,cs),
(139,309,o),
(170,614,o),
(150,641,cs),
(119,680,o),
(53,634,o),
(86,591,cs),
(87,591,o),
(61,358,o),
(48,99,cs)
);
},
{
closed = 1;
nodes = (
(304,-4,o),
(423,146,o),
(383,150,cs),
(324,157,o),
(276,163,o),
(238,169,cs),
(133,185,o),
(98,193,o),
(65,167,cs),
(41,148,o),
(-16,-22,o),
(13,1,cs),
(23,9,o),
(48,17,o),
(154,10,cs),
(185,8,o),
(224,5,o),
(271,0,cs)
);
}
);
width = 478;
}
);
unicode = 68;
},
{
glyphname = E;
lastChange = "2023-11-23 11:10:44 +0000";
layers = (
{
layerId = m01;
shapes = (
{
closed = 1;
nodes = (
(175,659,o),
(100,606,o),
(97,580,cs),
(78,393,o),
(57,203,o),
(39,29,cs),
(34,-15,o),
(55,0,o),
(63,6,cs),
(90,30,o),
(121,35,o),
(170,19,cs),
(238,-2,o),
(329,-18,o),
(379,25,cs),
(402,44,o),
(448,218,o),
(421,195,cs),
(385,166,o),
(294,169,o),
(232,189,cs),
(181,205,o),
(154,206,o),
(99,160,c),
(107,152,o),
(115,144,o),
(123,137,c),
(141,311,o),
(156,469,o),
(173,630,cs)
);
},
{
closed = 1;
nodes = (
(68,438,o),
(8,268,o),
(29,268,cs),
(137,269,o),
(245,269,o),
(352,269,cs),
(372,269,o),
(434,439,o),
(412,439,cs),
(304,438,o),
(196,438,o),
(89,438,cs)
);
},
{
closed = 1;
nodes = (
(440,549,o),
(487,723,o),
(460,703,cs),
(435,685,o),
(359,695,o),
(282,701,cs),
(208,707,o),
(133,709,o),
(98,681,cs),
(75,662,o),
(31,491,o),
(56,511,cs),
(90,538,o),
(173,531,o),
(252,524,cs),
(323,518,o),
(391,513,o),
(418,533,cs)
);
}
);
width = 468;
}
);
unicode = 69;
},
{
glyphname = F;
lastChange = "2023-11-23 11:10:44 +0000";
layers = (
{
layerId = m01;
shapes = (
{
closed = 1;
nodes = (
(190,749,o),
(105,633,o),
(97,554,cs),
(80,383,o),
(66,239,o),
(50,82,cs),
(48,57,o),
(126,99,o),
(128,122,cs),
(146,303,o),
(165,496,o),
(181,662,cs)
);
},
{
closed = 1;
nodes = (
(440,561,o),
(483,733,o),
(454,705,cs),
(436,688,o),
(358,691,o),
(281,695,cs),
(209,698,o),
(138,702,o),
(114,690,cs),
(91,678,o),
(37,508,o),
(62,520,cs),
(88,534,o),
(177,524,o),
(260,520,cs),
(329,516,o),
(393,516,o),
(414,537,cs)
);
},
{
closed = 1;
nodes = (
(367,285,o),
(415,459,o),
(389,444,cs),
(371,434,o),
(306,437,o),
(240,439,cs),
(174,442,o),
(108,444,o),
(86,431,cs),
(63,418,o),
(18,245,o),
(42,259,cs),
(63,272,o),
(142,267,o),
(215,264,cs),
(273,262,o),
(327,262,o),
(345,272,cs)
);
},
{
closed = 1;
nodes = (
(24,143,o),
(-32,-27,o),
(-1,2,cs),
(17,18,o),
(47,28,o),
(77,28,cs),
(104,27,o),
(130,19,o),
(144,0,cs),
(159,-19,o),
(221,150,o),
(208,168,cs),
(191,190,o),
(159,200,o),
(126,197,cs),
(98,195,o),
(69,185,o),
(49,166,cs)
);
}
);
width = 434;
}
);
unicode = 70;
},
{
glyphname = G;
lastChange = "2023-11-23 11:10:44 +0000";
layers = (
{
layerId = m01;
shapes = (
{
closed = 1;
nodes = (
(438,660,o),
(345,642,o),
(296,599,cs),
(-8,331,o),
(-33,108,o),
(88,9,cs),
(173,-61,o),
(308,18,o),
(426,239,cs),
(478,337,o),
(417,291,o),
(366,197,cs),
(358,182,o),
(299,68,o),
(214,137,cs),
(104,228,o),
(132,390,o),
(388,615,cs)
);
},
{
closed = 1;
nodes = (
(263,351,o),
(175,219,o),
(236,267,cs),
(249,278,o),
(283,284,o),
(306,265,cs),
(320,253,o),
(330,233,o),
(328,200,cs),
(325,135,o),
(316,72,o),
(309,6,cs),
(303,-58,o),
(315,-105,o),
(350,-100,cs),
(377,-97,o),
(503,33,o),
(470,28,cs),
(447,25,o),
(444,50,o),
(451,114,cs),
(457,178,o),
(466,244,o),
(470,308,cs),
(472,350,o),
(448,387,o),
(415,404,cs),
(385,419,o),
(347,418,o),
(312,391,cs)
);
},
{
closed = 1;
nodes = (
(413,593,o),
(466,761,o),
(434,727,cs),
(421,714,o),
(380,705,o),
(339,706,cs),
(304,707,o),
(268,715,o),
(250,732,cs),
(234,747,o),
(170,579,o),
(186,564,cs),
(205,546,o),
(242,537,o),
(279,536,cs),
(322,535,o),
(366,545,o),
(386,565,cs)
);
}
);
width = 520;
}
);
unicode = 71;
},
{
glyphname = H;
lastChange = "2023-11-23 11:10:44 +0000";
layers = (
{
guides = (
{
pos = (93,-2);
},
{
pos = (194,711);
},
{
pos = (1005,217);
}
);
layerId = m01;
shapes = (
{
closed = 1;
nodes = (
(74,438,o),
(13,268,o),
(34,268,cs),
(178,269,o),
(323,269,o),
(467,269,cs),
(486,269,o),
(548,439,o),
(527,439,cs),
(383,438,o),
(238,438,o),
(94,438,cs)
);
},
{
closed = 1;
nodes = (
(158,702,o),
(28,571,o),
(67,580,cs),
(76,583,o),
(87,564,o),
(82,488,cs),
(72,361,o),
(62,234,o),
(53,106,cs),
(47,39,o),
(71,-4,o),
(94,0,cs),
(124,5,o),
(251,138,o),
(216,132,cs),
(181,126,o),
(193,155,o),
(197,218,cs),
(207,345,o),
(217,472,o),
(226,600,cs),
(231,660,o),
(220,717,o),
(189,710,cs)
);
},
{
closed = 1;
nodes = (
(427,702,o),
(297,571,o),
(336,580,cs),
(345,583,o),
(356,564,o),
(351,488,cs),
(341,361,o),
(331,234,o),
(322,106,cs),
(316,39,o),
(340,-4,o),
(363,0,cs),
(393,5,o),
(520,138,o),
(485,132,cs),
(450,126,o),
(462,155,o),
(466,218,cs),
(476,345,o),
(486,472,o),
(495,600,cs),
(500,660,o),
(489,717,o),
(458,710,cs)
);
}
);
width = 561;
}
);
unicode = 72;
},
{
glyphname = I;
lastChange = "2023-11-23 11:10:44 +0000";
layers = (
{
layerId = m01;
shapes = (
{
closed = 1;
nodes = (
(156,702,o),
(26,571,o),
(65,580,cs),
(74,583,o),
(85,565,o),
(80,488,cs),
(70,361,o),
(60,234,o),
(51,106,cs),
(45,39,o),
(69,-4,o),
(92,0,cs),
(122,5,o),
(249,138,o),
(214,132,cs),
(179,126,o),
(191,155,o),
(195,218,cs),
(205,345,o),
(215,472,o),
(224,600,cs),
(229,661,o),
(218,717,o),
(187,710,cs)
);
}
);
width = 275;
}
);
unicode = 73;
},
{
glyphname = J;
lastChange = "2023-11-23 11:10:44 +0000";
layers = (
{
layerId = m01;
shapes = (
{
closed = 1;
nodes = (
(103,-23,o),
(215,118,o),
(211,141,cs),
(206,161,o),
(188,191,o),
(164,213,cs),
(139,238,o),
(108,256,o),
(82,247,cs),
(54,237,o),
(-54,93,o),
(-18,105,cs),
(1,112,o),
(31,94,o),
(55,69,cs),
(76,48,o),
(93,22,o),
(97,3,cs)
);
},
{
closed = 1;
nodes = (
(322,702,o),
(192,571,o),
(231,580,cs),
(240,583,o),
(253,563,o),
(246,488,cs),
(236,399,o),
(226,309,o),
(217,219,cs),
(203,96,o),
(201,120,o),
(199,119,cs),
(128,64,o),
(56,-40,o),
(135,21,cs),
(356,193,o),
(356,281,o),
(361,331,cs),
(371,420,o),
(381,510,o),
(390,600,cs),
(397,661,o),
(384,717,o),
(353,710,cs)
);
}
);
width = 427;
}
);
unicode = 74;
},
{
glyphname = K;
lastChange = "2023-11-23 11:10:44 +0000";
layers = (
{
layerId = m01;
shapes = (
{
closed = 1;
nodes = (
(288,485,o),
(169,349,o),
(186,339,cs),
(195,334,o),
(218,256,o),
(249,176,cs),
(284,85,o),
(330,-8,o),
(377,1,cs),
(404,6,o),
(520,144,o),
(487,137,cs),
(452,131,o),
(410,216,o),
(375,303,cs),
(342,385,o),
(314,469,o),
(304,475,cs)
);
},
{
closed = 1;
nodes = (
(124,696,o),
(0,562,o),
(44,579,cs),
(54,583,o),
(61,566,o),
(56,496,cs),
(46,370,o),
(36,244,o),
(27,118,cs),
(22,54,o),
(22,0,o),
(67,0,cs),
(93,0,o),
(224,152,o),
(191,152,cs),
(168,152,o),
(167,165,o),
(171,230,cs),
(181,356,o),
(191,482,o),
(200,608,cs),
(205,663,o),
(198,723,o),
(160,709,cs)
);
},
{
closed = 1;
nodes = (
(492,572,o),
(546,740,o),
(515,711,cs),
(495,693,o),
(460,683,o),
(428,686,cs),
(404,688,o),
(383,696,o),
(370,713,cs),
(356,731,o),
(291,564,o),
(306,545,cs),
(318,529,o),
(339,520,o),
(361,516,cs),
(397,512,o),
(438,522,o),
(465,547,cs)
);
},
{
closed = 1;
nodes = (
(492,608,o),
(398,615,o),
(381,596,cs),
(359,570,o),
(68,260,o),
(60,251,cs),
(42,231,o),
(137,225,o),
(154,243,cs),
(154,243,o),
(459,571,o),
(475,588,cs)
);
}
);
width = 524;
}
);
unicode = 75;
},
{
glyphname = L;
lastChange = "2023-11-23 11:10:44 +0000";
layers = (
{
layerId = m01;
shapes = (
{
closed = 1;
nodes = (
(48,92,o),
(-3,-43,o),
(43,11,cs),
(70,42,o),
(122,59,o),
(169,37,cs),
(210,16,o),
(273,-19,o),
(325,18,cs),
(350,36,o),
(407,206,o),
(377,184,cs),
(337,155,o),
(304,170,o),
(263,189,cs),
(208,217,o),
(150,210,o),
(87,137,cs)
);
},
{
closed = 1;
nodes = (
(147,703,o),
(20,575,o),
(57,583,cs),
(77,587,o),
(71,561,o),
(65,490,cs),
(52,334,o),
(41,177,o),
(27,21,cs),
(24,-16,o),
(164,122,o),
(167,155,cs),
(179,303,o),
(194,450,o),
(207,598,cs),
(211,649,o),
(217,717,o),
(177,709,cs)
);
}
);
width = 421;
}
);
unicode = 76;
},
{
glyphname = M;
lastChange = "2023-11-23 11:10:44 +0000";
layers = (
{
layerId = m01;
shapes = (
{
closed = 1;
nodes = (
(261,727,o),
(140,608,o),
(151,590,cs),
(221,479,o),
(252,52,o),
(307,1,cs),
(321,-12,o),
(442,108,o),
(427,121,cs),
(376,168,o),
(343,595,o),
(271,710,cs)
);
},
{
closed = 1;
nodes = (
(35,67,o),
(123,109,o),
(131,134,cs),
(210,367,o),
(214,650,o),
(214,652,cs),
(216,676,o),
(143,611,o),
(142,588,cs),
(141,577,o),
(125,333,o),
(45,96,cs)
);
},
{
closed = 1;
nodes = (
(301,130,o),
(394,161,o),
(403,184,cs),
(491,405,o),
(541,617,o),
(544,638,cs),
(548,669,o),
(468,617,o),
(464,586,cs),
(463,577,o),
(395,369,o),
(311,156,cs)
);
},
{
closed = 1;
nodes = (
(598,737,o),
(469,613,o),
(469,585,cs),
(473,472,o),
(471,5,o),
(544,1,cs),
(568,0,o),
(687,121,o),
(660,123,cs),
(595,127,o),
(603,586,o),
(599,707,cs)
);
},
{
closed = 1;
nodes = (
(9,143,o),
(-47,-27,o),
(-16,2,cs),
(2,19,o),
(35,28,o),
(67,27,cs),
(94,27,o),
(119,18,o),
(133,0,cs),
(148,-19,o),
(210,150,o),
(197,168,cs),
(182,188,o),
(153,198,o),
(123,198,cs),
(91,198,o),
(56,187,o),
(34,166,cs)
);
}
);
width = 704;
}
);
unicode = 77;
},
{
glyphname = N;
lastChange = "2023-11-23 11:10:44 +0000";
layers = (
{
layerId = m01;
shapes = (
{
closed = 1;
nodes = (
(185,728,o),
(64,609,o),
(74,591,cs),
(122,505,o),
(172,383,o),
(224,267,cs),
(270,162,o),
(319,63,o),
(368,2,cs),
(380,-13,o),
(501,107,o),
(488,122,cs),
(440,182,o),
(392,281,o),
(345,386,cs),
(293,502,o),
(243,624,o),
(196,709,cs)
);
},
{
closed = 1;
nodes = (
(40,95,o),
(118,101,o),
(126,121,cs),
(146,172,o),
(165,592,o),
(165,595,cs),
(166,620,o),
(97,582,o),
(95,561,cs),
(94,547,o),
(67,166,o),
(48,117,cs)
);
},
{
closed = 1;
nodes = (
(-1,145,o),
(-57,-25,o),
(-26,4,cs),
(-6,22,o),
(29,32,o),
(61,29,cs),
(85,27,o),
(106,19,o),
(119,2,cs),
(134,-17,o),
(196,152,o),
(183,170,cs),
(167,191,o),
(138,200,o),
(107,200,cs),
(77,199,o),
(46,188,o),
(24,168,cs)
);
},
{
closed = 1;
nodes = (
(540,570,o),
(594,738,o),
(563,709,cs),
(543,690,o),
(506,681,o),
(473,684,cs),
(451,686,o),
(430,695,o),
(418,711,cs),
(404,729,o),
(339,562,o),
(354,543,cs),
(373,519,o),
(409,510,o),
(445,515,cs),
(470,518,o),
(495,528,o),
(513,545,cs)
);
},
{
closed = 1;
nodes = (
(361,78,o),
(442,104,o),
(451,127,cs),
(477,193,o),
(489,570,o),
(491,592,cs),
(492,616,o),
(421,582,o),
(419,560,cs),
(419,560,o),
(386,144,o),
(371,103,cs)
);
}
);
width = 552;
}
);
unicode = 78;
},
{
glyphname = O;
lastChange = "2023-11-23 11:10:44 +0000";
layers = (
{
layerId = m01;
shapes = (
{
closed = 1;
nodes = (
(126,33,o),
(108,-64,o),
(219,14,cs),
(333,95,o),
(458,245,o),
(444,427,cs),
(438,517,o),
(398,614,o),
(306,715,cs),
(292,731,o),
(195,546,o),
(210,529,cs),
(279,452,o),
(315,388,o),
(330,334,cs),
(376,171,o),
(229,106,o),
(227,104,cs)
);
},
{
closed = 1;
nodes = (
(290,592,o),
(351,764,o),
(284,698,cs),
(215,630,o),
(8,340,o),
(10,149,cs),
(11,68,o),
(51,4,o),
(157,-15,cs),
(194,-21,o),
(351,120,o),
(307,128,cs),
(202,146,o),
(159,198,o),
(148,258,cs),
(125,379,o),
(234,536,o),
(234,537,cs)
);
}
);
width = 436;
}
);
unicode = 79;
},
{
glyphname = P;
lastChange = "2023-11-23 11:10:44 +0000";
layers = (
{
guides = (
{
pos = (108,716);
},
{
pos = (-222,587);
},
{
pos = (-231,373);
}
);
layerId = m01;
shapes = (
{
closed = 1;
nodes = (
(192,226,o),
(261,221,o),
(325,305,cs),
(422,430,o),
(446,526,o),
(427,593,cs),
(398,698,o),
(264,734,o),
(135,707,cs),
(113,702,o),
(30,564,o),
(57,569,cs),
(199,598,o),
(281,560,o),
(304,494,cs),
(323,442,o),
(306,373,o),
(255,307,cs)
);
},
{
closed = 1;
nodes = (
(261,214,o),
(378,364,o),
(329,369,cs),
(177,386,o),
(125,407,o),
(93,394,cs),
(71,386,o),
(12,216,o),
(35,226,cs),
(43,229,o),
(81,234,o),
(219,219,cs)
);
},
{
closed = 1;
nodes = (
(212,629,o),
(71,519,o),
(69,492,cs),
(61,363,o),
(53,235,o),
(44,106,cs),
(40,42,o),
(53,0,o),
(84,0,cs),
(108,0,o),
(235,130,o),
(206,130,cs),
(185,130,o),
(181,150,o),
(186,214,cs),
(194,343,o),
(202,471,o),
(211,600,cs)
);
}
);
width = 439;
}
);
unicode = 80;
},
{
glyphname = Q;
lastChange = "2023-11-23 11:10:44 +0000";
layers = (
{
layerId = m01;
shapes = (
{
closed = 1;
nodes = (
(253,335,o),
(209,290,o),
(211,273,cs),
(218,222,o),
(247,125,o),
(295,58,cs),
(331,7,o),
(378,-27,o),
(434,-13,cs),
(458,-7,o),
(531,194,o),
(504,187,cs),
(454,175,o),
(398,182,o),
(352,204,cs),
(301,227,o),
(262,269,o),
(255,319,cs)
);
},
{
closed = 1;
nodes = (
(126,33,o),
(108,-64,o),
(219,14,cs),
(333,95,o),
(460,247,o),
(444,432,cs),
(436,520,o),
(396,616,o),
(306,715,cs),
(291,731,o),
(194,546,o),
(209,529,cs),
(281,449,o),
(318,383,o),
(332,328,cs),
(372,169,o),
(228,105,o),
(227,104,cs)
);
},
{
closed = 1;
nodes = (
(290,591,o),
(351,763,o),
(283,698,cs),
(217,633,o),
(18,355,o),
(10,165,cs),
(6,75,o),
(44,5,o),
(157,-15,cs),
(194,-22,o),
(350,119,o),
(306,127,cs),
(199,147,o),
(156,200,o),
(147,262,cs),
(128,383,o),
(233,536,o),
(234,536,cs)
);
}
);
width = 553;
}
);
unicode = 81;
},
{
glyphname = R;
lastChange = "2023-11-23 11:10:44 +0000";
layers = (
{
guides = (
{
angle = 180;
pos = (337,360);
},
{
pos = (183,564);
}
);
layerId = m01;
shapes = (
{
closed = 1;
nodes = (
(179,621,o),
(108,470,o),
(110,421,cs),
(112,352,o),
(162,248,o),
(221,161,cs),
(291,57,o),
(374,-24,o),
(403,3,cs),
(428,26,o),
(484,195,o),
(453,167,cs),
(431,146,o),
(374,199,o),
(319,276,cs),
(250,370,o),
(183,501,o),
(180,575,cs)
);
},
{
closed = 1;
nodes = (
(19,143,o),
(-37,-27,o),
(-6,2,cs),
(12,18,o),
(43,28,o),
(72,28,cs),
(99,27,o),
(125,19,o),
(139,0,cs),
(154,-19,o),
(216,150,o),
(203,168,cs),
(187,188,o),
(159,198,o),
(129,198,cs),
(99,197,o),
(66,187,o),
(44,166,cs)
);
},
{
closed = 1;
nodes = (
(178,642,o),
(85,560,o),
(81,462,cs),
(73,287,o),
(79,300,o),
(59,63,cs),
(55,17,o),
(134,64,o),
(137,105,cs),
(159,358,o),
(165,373,o),
(173,540,cs)
);
},
{
closed = 1;
nodes = (
(183,245,o),
(259,251,o),
(319,332,cs),
(410,454,o),
(436,542,o),
(425,602,cs),
(402,722,o),
(233,736,o),
(116,695,cs),
(92,687,o),
(1,530,o),
(30,541,cs),
(164,588,o),
(270,568,o),
(296,499,cs),
(311,458,o),
(298,400,o),
(245,328,cs)
);
}
);
width = 502;
}
);
unicode = 82;
},
{
glyphname = S;
lastChange = "2023-11-23 11:10:44 +0000";
layers = (
{
layerId = m01;
shapes = (
{
closed = 1;
nodes = (
(265,418,o),
(389,525,o),
(415,574,cs),
(437,617,o),
(418,684,o),
(366,707,cs),
(328,724,o),
(273,717,o),
(203,660,cs),
(134,603,o),
(93,526,o),
(169,588,cs),
(190,606,o),
(232,594,o),
(262,568,cs),
(291,543,o),
(310,506,o),
(291,470,cs)
);
},
{
closed = 1;
nodes = (
(204,663,o),
(78,551,o),
(60,509,cs),
(16,409,o),
(93,359,o),
(162,294,cs),
(227,234,o),
(302,188,o),
(260,86,cs),
(245,49,o),
(370,163,o),
(386,202,cs),
(438,326,o),
(349,356,o),
(284,416,cs),
(215,479,o),
(150,539,o),
(186,623,cs)
);
},
{
closed = 1;
nodes = (
(155,274,o),
(27,159,o),
(10,117,cs),
(-5,81,o),
(15,24,o),
(59,-2,cs),
(100,-25,o),
(160,-24,o),
(235,40,cs),
(305,99,o),
(340,171,o),
(263,106,cs),
(249,94,o),
(205,107,o),
(172,133,cs),
(142,156,o),
(121,190,o),
(136,227,cs)
);
}
);
width = 434;
}
);
unicode = 83;
},
{
glyphname = T;
lastChange = "2023-11-23 11:10:44 +0000";
layers = (
{
layerId = m01;
shapes = (
{
closed = 1;
nodes = (
(427,565,o),
(487,733,o),
(440,710,cs),
(415,698,o),
(345,704,o),
(273,708,cs),
(196,712,o),
(116,713,o),
(85,686,cs),
(61,665,o),
(18,494,o),
(43,516,cs),
(65,535,o),
(123,537,o),
(186,535,cs),
(264,534,o),
(350,528,o),
(388,546,cs)
);
},
{
closed = 1;
nodes = (
(347,628,o),
(296,646,o),
(263,602,cs),
(139,443,o),
(78,262,o),
(70,164,cs),
(61,53,o),
(126,-31,o),
(210,-14,cs),
(243,-7,o),
(374,106,o),
(336,98,cs),
(274,85,o),
(192,177,o),
(200,280,cs),
(205,336,o),
(229,475,o),
(311,582,cs)
);
}
);
width = 422;
}
);
unicode = 84;
},
{
glyphname = U;
lastChange = "2023-11-23 11:10:44 +0000";
layers = (
{
layerId = m01;
shapes = (
{
closed = 1;
nodes = (
(405,376,o),
(365,382,o),
(362,355,cs),
(335,114,o),
(263,124,o),
(251,124,cs),
(202,120,o),
(190,203,o),
(199,293,cs),
(210,394,o),
(219,495,o),
(229,596,cs),
(236,664,o),
(204,723,o),
(152,706,cs),
(119,695,o),
(-3,565,o),
(38,578,cs),
(82,593,o),
(89,550,o),
(85,502,cs),
(74,401,o),
(65,300,o),
(55,199,cs),
(44,96,o),
(107,-23,o),
(203,-16,cs),
(327,-6,o),
(387,220,o),
(402,351,cs)
);
},
{
closed = 1;
nodes = (
(425,-1,o),
(541,117,o),
(513,117,cs),
(471,117,o),
(473,199,o),
(482,293,cs),
(493,394,o),
(503,495,o),
(513,596,cs),
(520,664,o),
(487,723,o),
(435,706,cs),
(402,695,o),
(280,565,o),
(321,578,cs),
(365,593,o),
(374,550,o),
(369,502,cs),
(358,401,o),
(348,300,o),
(338,199,cs),
(326,88,o),
(348,-1,o),
(401,-1,cs)
);
}
);
width = 557;
}
);
unicode = 85;
},
{
glyphname = V;
lastChange = "2023-11-23 11:10:44 +0000";
layers = (
{
layerId = m01;
shapes = (
{
closed = 1;
nodes = (
(499,646,o),
(416,627,o),
(410,607,cs),
(351,408,o),
(261,128,o),
(247,39,cs),
(243,15,o),
(336,105,o),
(339,125,cs),
(349,188,o),
(439,442,o),
(492,623,cs)
);
},
{
closed = 1;
nodes = (
(533,572,o),
(587,740,o),
(556,711,cs),
(536,692,o),
(499,683,o),
(467,686,cs),
(444,688,o),
(423,697,o),
(411,713,cs),
(397,731,o),
(332,564,o),
(347,545,cs),
(364,523,o),
(395,514,o),
(428,516,cs),
(456,517,o),
(485,528,o),
(506,547,cs)
);
},
{
closed = 1;
nodes = (
(248,6,o),
(372,144,o),
(321,121,cs),
(309,115,o),
(243,487,o),
(215,635,cs),
(205,689,o),
(158,721,o),
(124,711,cs),
(92,701,o),
(-31,571,o),
(8,583,cs),
(46,595,o),
(77,563,o),
(87,511,cs),
(113,371,o),
(163,-33,o),
(203,-15,cs)
);
}
);
width = 510;
}
);
unicode = 86;
},
{
glyphname = W;
lastChange = "2023-11-23 11:10:44 +0000";
layers = (
{
layerId = m01;
shapes = (
{
closed = 1;
nodes = (
(387,-18,o),
(515,110,o),
(505,127,cs),
(447,232,o),
(462,659,o),
(404,711,cs),
(390,724,o),
(269,605,o),
(284,591,cs),
(336,543,o),
(317,110,o),
(377,1,cs)
);
},
{
closed = 1;
nodes = (
(679,641,o),
(589,603,o),
(580,578,cs),
(498,339,o),
(426,48,o),
(424,42,cs),
(416,14,o),
(503,97,o),
(510,122,cs),
(513,133,o),
(586,371,o),
(670,614,cs)
);
},
{
closed = 1;
nodes = (
(432,647,o),
(341,607,o),
(333,584,cs),
(293,480,o),
(188,77,o),
(188,77,cs),
(139,16,o),
(202,54,o),
(246,109,cs),
(282,154,o),
(392,542,o),
(421,618,cs)
);
},
{
closed = 1;
nodes = (
(133,-19,o),
(261,109,o),
(254,128,cs),
(199,280,o),
(246,745,o),
(131,709,cs),
(99,700,o),
(-16,577,o),
(23,589,cs),
(120,618,o),
(60,182,o),
(126,2,cs)
);
},
{
closed = 1;
nodes = (
(704,573,o),
(758,742,o),
(727,712,cs),
(708,694,o),
(672,685,o),
(640,687,cs),
(614,688,o),
(591,697,o),
(578,714,cs),
(564,732,o),
(500,566,o),
(514,546,cs),
(530,525,o),
(561,516,o),
(593,516,cs),
(624,517,o),
(656,528,o),
(677,548,cs)
);
}
);
width = 681;
}
);
unicode = 87;
},
{
glyphname = X;
lastChange = "2023-11-23 11:10:44 +0000";
layers = (
{
layerId = m01;
shapes = (
{
closed = 1;
nodes = (
(476,612,o),
(381,596,o),
(365,572,cs),
(357,560,o),
(305,475,o),
(249,383,cs),
(175,263,o),
(95,130,o),
(95,130,cs),
(80,105,o),
(176,124,o),
(189,146,cs),
(195,156,o),
(248,244,o),
(306,339,cs),
(371,447,o),
(443,564,o),
(459,588,cs)
);
},
{
closed = 1;
nodes = (
(402,-4,o),
(508,140,o),
(472,127,cs),
(440,115,o),
(382,273,o),
(321,428,cs),
(260,583,o),
(198,734,o),
(156,713,cs),
(123,696,o),
(19,552,o),
(60,573,cs),
(87,587,o),
(137,465,o),
(191,328,cs),
(257,160,o),
(329,-30,o),
(372,-15,cs)
);
},
{
closed = 1;
nodes = (
(85,-47,o),
(198,91,o),
(200,122,cs),
(201,144,o),
(188,172,o),
(171,195,cs),
(152,223,o),
(126,245,o),
(106,250,cs),
(88,255,o),
(-24,113,o),
(-2,108,cs),
(10,104,o),
(33,83,o),
(53,58,cs),
(72,34,o),
(87,7,o),
(86,-12,cs)
);
},
{
closed = 1;
nodes = (
(454,448,o),
(565,591,o),
(543,596,cs),
(528,600,o),
(504,623,o),
(485,648,cs),
(467,672,o),
(454,698,o),
(455,716,cs),
(456,749,o),
(343,616,o),
(341,582,cs),
(340,559,o),
(354,531,o),
(373,506,cs),
(393,480,o),
(418,458,o),
(435,454,cs)
);
}
);
width = 541;
}
);
unicode = 88;
},
{
glyphname = Y;
lastChange = "2023-11-23 11:10:44 +0000";
layers = (
{
layerId = m01;
shapes = (
{
closed = 1;
nodes = (
(514,674,o),
(426,656,o),
(407,597,cs),
(403,584,o),
(170,128,o),
(163,113,cs),
(132,53,o),
(212,51,o),
(243,111,cs),
(245,114,o),
(484,579,o),
(495,613,cs)
);
},
{
closed = 1;
nodes = (
(531,572,o),
(585,740,o),
(554,711,cs),
(536,694,o),
(505,685,o),
(475,685,cs),
(449,686,o),
(423,694,o),
(409,713,cs),
(395,731,o),
(330,564,o),
(345,545,cs),
(359,527,o),
(384,517,o),
(411,515,cs),
(444,514,o),
(480,525,o),
(504,547,cs)
);
},
{
closed = 1;
nodes = (
(272,336,o),
(381,461,o),
(327,433,cs),
(303,420,o),
(279,477,o),
(255,543,cs),
(223,627,o),
(189,726,o),
(147,709,cs),
(111,695,o),
(-9,565,o),
(35,583,cs),
(66,595,o),
(93,500,o),
(125,417,cs),
(152,348,o),
(183,289,o),
(225,311,cs)
);
},
{
closed = 1;
nodes = (
(114,143,o),
(58,-27,o),
(89,2,cs),
(107,19,o),
(138,28,o),
(168,28,cs),
(194,27,o),
(220,19,o),
(234,0,cs),
(249,-19,o),
(311,150,o),
(298,168,cs),
(284,186,o),
(260,196,o),
(234,197,cs),
(201,200,o),
(164,189,o),
(139,166,cs)
);
}
);
width = 518;
}
);
unicode = 89;
},
{
glyphname = Z;
lastChange = "2023-11-23 11:10:44 +0000";
layers = (
{
layerId = m01;
shapes = (
{
closed = 1;
nodes = (
(22,122,o),
(-25,-40,o),
(30,6,cs),
(62,34,o),
(108,28,o),
(157,17,cs),
(225,2,o),
(299,-21,o),
(354,25,cs),
(377,44,o),
(423,218,o),
(396,195,cs),
(353,159,o),
(302,173,o),
(248,185,cs),
(189,199,o),
(127,211,o),
(66,160,cs)
);
},
{
closed = 1;
nodes = (
(97,657,o),
(42,487,o),
(76,524,cs),
(104,554,o),
(173,542,o),
(248,535,cs),
(299,530,o),
(353,527,o),
(399,540,cs),
(420,546,o),
(481,717,o),
(457,710,cs),
(403,694,o),
(340,703,o),
(283,709,cs),
(217,717,o),
(158,722,o),
(124,686,cs)
);
},
{
closed = 1;
nodes = (
(433,604,o),
(335,590,o),
(326,568,cs),
(268,426,o),
(81,211,o),
(46,100,cs),
(39,78,o),
(138,94,o),
(144,114,cs),
(177,219,o),
(364,434,o),
(424,582,cs)
);
},
{
closed = 1;
nodes = (
(135,444,o),
(76,273,o),
(104,292,cs),
(124,306,o),
(161,291,o),
(200,275,cs),
(241,259,o),
(284,240,o),
(312,252,cs),
(334,261,o),
(394,431,o),
(368,420,cs),
(348,412,o),
(317,423,o),
(284,437,cs),
(238,456,o),
(187,480,o),
(158,460,cs)
);
}
);
width = 467;
}
);
unicode = 90;
},
{
glyphname = a;
lastChange = "2023-11-23 11:10:44 +0000";
layers = (
{
background = {
shapes = (
{
closed = 1;
nodes = (
);
}
);
};
guides = (
{
pos = (295,715);
}
);
layerId = m01;
shapes = (
{
closed = 1;
nodes = (
(306,-10,o),
(440,128,o),
(415,136,cs),
(370,150,o),
(403,310,o),
(426,574,cs),
(431,624,o),
(414,687,o),
(373,707,cs),
(334,727,o),
(272,706,o),
(185,596,cs),
(134,533,o),
(170,515,o),
(221,580,cs),
(238,600,o),
(255,604,o),
(268,591,cs),
(286,574,o),
(296,527,o),
(290,450,cs),
(266,177,o),
(228,14,o),
(285,-4,cs)
);
},
{
closed = 1;
nodes = (
(54,398,o),
(-7,228,o),
(14,228,cs),
(151,229,o),
(288,229,o),
(425,229,cs),
(444,229,o),
(506,399,o),
(485,399,cs),
(348,398,o),
(211,398,o),
(74,398,cs)
);
},
{
closed = 1;
nodes = (
(267,667,o),
(173,592,o),
(138,526,cs),
(123,498,o),
(106,454,o),
(99,407,cs),
(84,308,o),
(69,154,o),
(51,16,cs),
(45,-35,o),
(137,34,o),
(143,78,cs),
(161,224,o),
(178,385,o),
(193,489,cs),
(200,536,o),
(227,592,o),
(228,594,cs)
);
}
);
width = 506;
}
);
unicode = 97;
},
{
glyphname = b;
lastChange = "2023-11-23 11:10:44 +0000";
layers = (
{
layerId = m01;
shapes = (
{
closed = 1;
nodes = (
(34,207,o),
(47,101,o),
(67,184,cs),
(91,286,o),
(254,332,o),
(330,280,cs),
(366,255,o),
(383,207,o),
(355,133,cs),
(333,76,o),
(443,196,o),
(463,249,cs),
(489,316,o),
(478,368,o),
(448,404,cs),
(402,457,o),
(313,475,o),
(229,453,cs),
(149,432,o),
(75,375,o),
(51,278,cs)
);
},
{
closed = 1;
nodes = (
(147,376,o),
(138,285,o),
(219,345,cs),
(415,490,o),
(450,607,o),
(411,669,cs),
(381,718,o),
(306,732,o),
(230,697,cs),
(162,665,o),
(92,594,o),
(54,473,cs),
(20,364,o),
(98,342,o),
(134,455,cs),
(163,548,o),
(272,575,o),
(298,544,cs),
(313,526,o),
(298,488,o),
(221,431,cs)
);
},
{
closed = 1;
nodes = (
(146,497,o),
(70,521,o),
(55,469,cs),
(30,378,o),
(21,219,o),
(21,145,cs),
(21,92,o),
(107,99,o),
(107,153,cs),
(107,213,o),
(112,372,o),
(133,449,cs)
);
},
{
closed = 1;
nodes = (
(490,334,o),
(465,354,o),
(431,257,cs),
(401,175,o),
(305,142,o),
(228,151,cs),
(151,160,o),
(93,210,o),
(138,295,cs),
(176,368,o),
(79,277,o),
(40,203,cs),
(-14,101,o),
(46,12,o),
(139,-9,cs),
(240,-32,o),
(380,26,o),
(455,237,cs)
);
}
);
width = 497;
}
);
unicode = 98;
},
{
glyphname = c;
lastChange = "2023-11-23 11:10:44 +0000";
layers = (
{
layerId = m01;
shapes = (
{
closed = 1;
nodes = (
(334,455,o),
(446,596,o),
(441,619,cs),
(434,644,o),
(401,712,o),
(339,716,cs),
(296,718,o),
(239,690,o),
(167,594,cs),
(12,387,o),
(-11,189,o),
(39,78,cs),
(89,-34,o),
(211,-58,o),
(347,82,cs),
(430,168,o),
(440,264,o),
(351,172,cs),
(288,107,o),
(228,135,o),
(189,201,cs),
(139,287,o),
(126,436,o),
(193,526,cs),
(217,558,o),
(304,578,o),
(327,481,cs)
);
}
);
width = 456;
}
);
unicode = 99;
},
{
glyphname = d;
lastChange = "2023-11-23 11:14:49 +0000";
layers = (
{
layerId = m01;
shapes = (
{
closed = 1;
nodes = (
(94,725,o),
(17,562,o),
(35,553,cs),
(143,493,o),
(212,432,o),
(255,378,cs),
(326,290,o),
(330,222,o),
(326,213,cs),
(276,111,o),
(348,121,o),
(398,223,cs),
(447,323,o),
(441,409,o),
(393,487,cs),
(342,569,o),
(243,643,o),
(111,715,cs)
);
},
{
closed = 1;
nodes = (
(138,591,o),
(62,567,o),
(60,547,cs),
(47,395,o),
(33,243,o),
(20,91,cs),
(18,69,o),
(94,92,o),
(96,113,cs),
(109,265,o),
(123,417,o),
(136,569,cs)
);
},
{
closed = 1;
nodes = (
(18,232,o),
(-44,48,o),
(-27,37,cs),
(12,11,o),
(60,-15,o),
(113,-16,cs),
(186,-16,o),
(270,27,o),
(355,152,cs),
(411,232,o),
(374,281,o),
(317,198,cs),
(296,168,o),
(249,151,o),
(187,159,cs),
(143,165,o),
(91,184,o),
(35,221,cs)
);
}
);
width = 462;
}
);
unicode = 100;
},
{
glyphname = e;
lastChange = "2023-11-23 11:10:44 +0000";
layers = (
{
layerId = m01;
shapes = (
{
closed = 1;
nodes = (
(306,455,o),
(433,583,o),
(426,602,cs),
(388,705,o),
(313,730,o),
(262,706,cs),
(154,655,o),
(100,509,o),
(71,364,cs),
(43,226,o),
(37,90,o),
(28,41,cs),
(17,-16,o),
(37,-1,o),
(39,0,cs),
(84,15,o),
(116,23,o),
(166,14,cs),
(226,4,o),
(307,-27,o),
(372,26,cs),
(414,61,o),
(455,227,o),
(404,186,cs),
(381,167,o),
(282,174,o),
(226,184,cs),
(182,191,o),
(146,193,o),
(101,176,c),
(104,163,o),
(108,149,o),
(112,135,c),
(161,387,o),
(178,538,o),
(212,554,cs),
(238,566,o),
(262,572,o),
(298,476,cs)
);
},
{
closed = 1;
nodes = (
(58,438,o),
(-2,268,o),
(19,268,cs),
(127,269,o),
(235,269,o),
(342,269,cs),
(362,269,o),
(424,439,o),
(402,439,cs),
(294,438,o),
(186,438,o),
(79,438,cs)
);
}
);
width = 468;
}
);
unicode = 101;
},
{
glyphname = f;
lastChange = "2023-11-23 11:10:44 +0000";
layers = (
{
layerId = m01;
shapes = (
{
closed = 1;
nodes = (
(439,604,o),
(475,759,o),
(431,701,cs),
(410,674,o),
(347,659,o),
(305,659,cs),
(250,659,o),
(188,681,o),
(155,710,cs),
(125,738,o),
(76,578,o),
(76,574,cs),
(58,384,o),
(40,201,o),
(23,18,cs),
(18,-28,o),
(98,19,o),
(101,60,cs),
(121,271,o),
(141,480,o),
(160,684,c),
(134,638,o),
(107,593,o),
(81,548,c),
(120,511,o),
(188,489,o),
(245,489,cs),
(299,489,o),
(348,486,o),
(399,553,cs)
);
},
{
closed = 1;
nodes = (
(339,226,o),
(389,399,o),
(368,400,cs),
(270,400,o),
(171,401,o),
(73,402,cs),
(54,402,o),
(4,229,o),
(25,228,cs),
(123,228,o),
(222,227,o),
(320,226,cs)
);
}
);
width = 431;
}
);
unicode = 102;
},
{
glyphname = g;
lastChange = "2023-11-23 11:10:44 +0000";
layers = (
{
layerId = m01;
shapes = (
{
closed = 1;
nodes = (
(277,350,o),
(189,218,o),
(250,266,cs),
(263,277,o),
(297,286,o),
(320,271,cs),
(334,262,o),
(344,243,o),
(342,209,cs),
(340,168,o),
(332,126,o),
(327,85,cs),
(319,14,o),
(343,-5,o),
(351,-14,cs),
(364,-29,o),
(492,98,o),
(479,112,cs),
(473,119,o),
(461,128,o),
(469,193,cs),
(473,234,o),
(481,275,o),
(484,317,cs),
(486,356,o),
(467,387,o),
(438,403,cs),
(407,421,o),
(364,420,o),
(326,390,cs)
);
},
{
closed = 1;
nodes = (
(363,483,o),
(490,611,o),
(479,626,cs),
(440,679,o),
(398,709,o),
(354,716,cs),
(291,724,o),
(224,685,o),
(156,591,cs),
(22,406,o),
(-3,202,o),
(39,84,cs),
(75,-21,o),
(163,-58,o),
(272,44,cs),
(319,88,o),
(429,316,o),
(431,321,cs),
(446,367,o),
(378,348,o),
(363,303,cs),
(326,191,o),
(291,161,o),
(290,160,cs),
(219,94,o),
(173,141,o),
(153,224,cs),
(130,322,o),
(142,469,o),
(190,535,cs),
(192,537,o),
(221,593,o),
(277,568,cs),
(298,559,o),
(323,538,o),
(351,500,cs)
);
}
);
width = 524;
}
);
unicode = 103;
},
{
glyphname = h;
lastChange = "2023-11-23 11:10:44 +0000";
layers = (
{
layerId = m01;
shapes = (
{
closed = 1;
nodes = (
(74,437,o),
(13,267,o),
(34,267,cs),
(178,268,o),
(323,268,o),
(467,268,cs),
(486,268,o),
(548,438,o),
(527,438,cs),
(383,437,o),
(238,437,o),
(94,437,cs)
);
},
{
closed = 1;
nodes = (
(195,726,o),
(65,603,o),
(75,584,cs),
(92,552,o),
(93,548,o),
(88,500,cs),
(77,369,o),
(69,237,o),
(59,106,cs),
(54,39,o),
(68,20,o),
(97,0,cs),
(113,-11,o),
(240,116,o),
(223,128,cs),
(200,144,o),
(196,153,o),
(201,214,cs),
(211,345,o),
(218,477,o),
(230,608,cs),
(234,662,o),
(224,674,o),
(205,708,cs)
);
},
{
closed = 1;
nodes = (
(463,726,o),
(333,603,o),
(343,584,cs),
(360,553,o),
(360,548,o),
(356,500,cs),
(346,369,o),
(337,237,o),
(327,106,cs),
(322,39,o),
(336,20,o),
(365,0,cs),
(381,-11,o),
(508,116,o),
(491,128,cs),
(468,144,o),
(464,153,o),
(469,214,cs),
(479,345,o),
(488,477,o),
(498,608,cs),
(502,662,o),
(492,673,o),
(473,708,cs)
);
}
);
width = 561;
}
);
unicode = 104;
},
{
glyphname = i;
lastChange = "2023-11-23 11:10:44 +0000";
layers = (
{
layerId = m01;
shapes = (
{
closed = 1;
nodes = (
(187,726,o),
(57,603,o),
(67,584,cs),
(84,553,o),
(85,548,o),
(80,490,cs),
(70,362,o),
(61,234,o),
(51,106,cs),
(46,39,o),
(60,20,o),
(89,0,cs),
(105,-11,o),
(232,116,o),
(215,128,cs),
(192,144,o),
(188,153,o),
(193,214,cs),
(202,342,o),
(211,470,o),
(222,598,cs),
(227,662,o),
(216,673,o),
(197,708,cs)
);
}
);
width = 273;
}
);
unicode = 105;
},
{
glyphname = j;
lastChange = "2023-11-23 11:10:44 +0000";
layers = (
{
layerId = m01;
shapes = (
{
closed = 1;
nodes = (
(149,307,o),
(20,198,o),
(-2,153,cs),
(-32,92,o),
(-7,26,o),
(45,-3,cs),
(98,-31,o),
(178,-20,o),
(254,77,cs),
(303,141,o),
(308,230,o),
(254,161,cs),
(222,120,o),
(170,115,o),
(137,138,cs),
(109,158,o),
(96,200,o),
(124,257,cs)
);
},
{
closed = 1;
nodes = (
(435,741,o),
(299,652,o),
(274,597,cs),
(263,572,o),
(263,566,o),
(257,506,cs),
(247,379,o),
(239,253,o),
(229,126,cs),
(221,13,o),
(279,132,o),
(278,131,cs),
(226,99,o),
(123,-24,o),
(186,15,cs),
(271,67,o),
(368,203,o),
(371,234,cs),
(380,361,o),
(388,488,o),
(399,614,cs),
(404,676,o),
(405,674,o),
(410,685,cs)
);
},
{
closed = 1;
nodes = (
(354,618,o),
(419,727,o),
(366,685,cs),
(337,662,o),
(301,658,o),
(269,664,cs),
(229,672,o),
(195,694,o),
(187,713,cs),
(178,735,o),
(75,590,o),
(85,567,cs),
(91,550,o),
(122,533,o),
(163,530,cs),
(204,528,o),
(256,540,o),
(308,581,cs)
);
}
);
width = 433;
}
);
unicode = 106;
},
{
glyphname = k;
lastChange = "2023-11-23 11:10:44 +0000";
layers = (
{
layerId = m01;
shapes = (
{
closed = 1;
nodes = (
(206,373,o),
(99,236,o),
(144,260,cs),
(197,288,o),
(241,286,o),
(277,266,cs),
(360,221,o),
(394,79,o),
(379,6,cs),
(371,-33,o),
(491,97,o),
(499,132,cs),
(513,199,o),
(489,329,o),
(418,388,cs),
(376,422,o),
(319,432,o),
(244,392,cs)
);
},
{
closed = 1;
nodes = (
(157,721,o),
(26,591,o),
(42,578,cs),
(47,575,o),
(65,551,o),
(61,496,cs),
(51,370,o),
(41,244,o),
(32,118,cs),
(26,48,o),
(33,20,o),
(69,0,cs),
(89,-11,o),
(220,140,o),
(199,152,cs),
(185,160,o),
(172,170,o),
(176,230,cs),
(186,356,o),
(196,482,o),
(205,608,cs),
(211,677,o),
(183,701,o),
(172,710,cs)
);
},
{
closed = 1;
nodes = (
(546,722,o),
(441,712,o),
(421,690,cs),
(393,658,o),
(138,320,o),
(134,315,cs),
(96,266,o),
(168,249,o),
(204,295,cs),
(210,303,o),
(511,682,o),
(525,698,cs)
);
}
);
width = 538;
}
);
unicode = 107;
},
{
glyphname = l;
lastChange = "2023-11-23 11:18:45 +0000";
layers = (
{
layerId = m01;
shapes = (
{
closed = 1;
nodes = (
(167,721,o),
(36,591,o),
(52,578,cs),
(57,575,o),
(75,551,o),
(71,496,cs),
(61,370,o),
(51,244,o),
(42,118,cs),
(37,54,o),
(37,0,o),
(82,0,cs),
(108,0,o),
(239,152,o),
(206,152,cs),
(183,152,o),
(182,165,o),
(186,230,cs),
(196,356,o),
(206,482,o),
(215,608,cs),
(221,677,o),
(193,701,o),
(182,710,cs)
);
},
{
closed = 1;
nodes = (
(151,125,o),
(75,-7,o),
(122,30,cs),
(153,55,o),
(188,59,o),
(219,52,cs),
(258,44,o),
(291,20,o),
(299,1,cs),
(308,-22,o),
(410,127,o),
(401,147,cs),
(394,166,o),
(358,191,o),
(310,196,cs),
(274,199,o),
(231,190,o),
(188,156,cs)
);
}
);
width = 422;
}
);
unicode = 108;
},
{
glyphname = m;
lastChange = "2023-11-23 11:10:44 +0000";
layers = (
{
layerId = m01;
shapes = (
{
closed = 1;
nodes = (
(210,719,o),
(82,592,o),
(99,580,cs),
(128,559,o),
(158,449,o),
(182,323,cs),
(203,211,o),
(219,88,o),
(224,4,cs),
(225,-23,o),
(354,103,o),
(352,128,cs),
(348,201,o),
(336,303,o),
(320,402,cs),
(295,546,o),
(261,682,o),
(225,708,cs)
);
},
{
closed = 1;
nodes = (
(-16,-25,o),
(61,10,o),
(72,54,cs),
(98,158,o),
(116,260,o),
(129,348,cs),
(151,496,o),
(157,604,o),
(158,609,cs),
(161,647,o),
(91,601,o),
(88,567,cs),
(88,566,o),
(78,463,o),
(56,322,cs),
(41,232,o),
(22,127,o),
(-4,24,cs)
);
},
{
closed = 1;
nodes = (
(207,56,o),
(299,115,o),
(324,165,cs),
(357,231,o),
(384,296,o),
(407,357,cs),
(465,509,o),
(494,629,o),
(494,631,cs),
(506,677,o),
(408,600,o),
(398,559,cs),
(396,554,o),
(383,500,o),
(358,419,cs),
(331,336,o),
(290,225,o),
(236,115,cs)
);
},
{
closed = 1;
nodes = (
(519,706,o),
(391,576,o),
(419,576,cs),
(435,576,o),
(435,463,o),
(437,334,cs),
(439,204,o),
(443,59,o),
(470,2,cs),
(479,-17,o),
(607,110,o),
(598,128,cs),
(577,173,o),
(571,271,o),
(568,374,cs),
(564,534,o),
(569,706,o),
(541,706,cs)
);
}
);
width = 633;
}
);
unicode = 109;
},
{
glyphname = n;
lastChange = "2023-11-23 11:10:44 +0000";
layers = (
{
layerId = m01;
shapes = (
{
closed = 1;
nodes = (
(162.309,721.859,o),
(41.235,602.783,o),
(51.423,584.533,cs),
(142.188,421.955,o),
(255.603,93.155,o),
(361.09,-0.28,cs),
(375.443,-12.993,o),
(495.972,106.938,o),
(480.91,120.28,cs),
(448.137,149.308,o),
(457.492,149.294,o),
(492.693,597.655,cs),
(497.7,661.434,o),
(487.431,672.887,o),
(468.605,707.4,cs),
(458.543,725.849,o),
(335.332,609.048,o),
(345.395,590.6,cs),
(362.569,559.113,o),
(363.881,554.599,o),
(359.307,496.345,cs),
(323.397,38.95,o),
(319.509,36.55,o),
(361.09,-0.28,cs),
(375.443,-12.993,o),
(495.972,106.938,o),
(480.91,120.28,cs),
(377.777,211.63,o),
(263.812,540.045,o),
(172.577,703.467,cs)
);
},
{
closed = 1;
nodes = (
(12.224,-25.638,o),
(90.832,14.138,o),
(98.994,58.212,cs),
(110,117.646,o),
(150.323,586.195,o),
(150.41,587.201,cs),
(154.291,631.85,o),
(75.317,587.676,o),
(71.59,544.799,cs),
(70.221,529.054,o),
(32.447,83.568,o),
(21.006,21.788,cs)
);
}
);
width = 539;
}
);
unicode = 110;
},
{
glyphname = o;
lastChange = "2023-11-23 11:13:50 +0000";
layers = (
{
layerId = m01;
shapes = (
{
closed = 1;
nodes = (
(267,76,o),
(420,250,o),
(425,308,cs),
(432,382,o),
(433,457,o),
(440,531,cs),
(445,589,o),
(421,685,o),
(360,714,cs),
(310,738,o),
(234,718,o),
(127,594,cs),
(52,506,o),
(83,474,o),
(163,566,cs),
(175,581,o),
(211,579,o),
(243,558,cs),
(277,535,o),
(307,489,o),
(300,415,cs),
(293,325,o),
(280,235,o),
(273,144,cs)
);
},
{
closed = 1;
nodes = (
(172,597,o),
(109,586,o),
(71,515,cs),
(20,420,o),
(37,312,o),
(26,221,cs),
(13,117,o),
(21,39,o),
(70,6,cs),
(102,-16,o),
(166,-51,o),
(268,74,cs),
(326,146,o),
(385,280,o),
(320,200,cs),
(281,152,o),
(190,139,o),
(164,156,cs),
(163,157,o),
(101,223,o),
(110,297,cs),
(122,399,o),
(123,505,o),
(135,527,cs)
);
}
);
width = 471;
}
);
unicode = 111;
},
{
glyphname = p;
lastChange = "2023-11-23 11:10:44 +0000";
layers = (
{
guides = (
{
pos = (717,374);
},
{
pos = (629,569);
}
);
layerId = m01;
shapes = (
{
closed = 1;
nodes = (
(119,272,o),
(182,244,o),
(261,311,cs),
(458,480,o),
(466,627,o),
(402,687,cs),
(356,730,o),
(273,730,o),
(197,663,cs),
(143,616,o),
(91,535,o),
(59,414,cs),
(29,303,o),
(113,302,o),
(143,414,cs),
(159,473,o),
(183,513,o),
(207,537,cs),
(243,572,o),
(281,572,o),
(299,548,cs),
(315,525,o),
(314,481,o),
(276,425,cs),
(258,398,o),
(232,369,o),
(195,337,cs)
);
},
{
closed = 1;
nodes = (
(152,448,o),
(75,469,o),
(62,418,cs),
(37,318,o),
(25,26,o),
(25,19,cs),
(22,-26,o),
(101,23,o),
(103,63,cs),
(104,74,o),
(119,315,o),
(140,398,cs)
);
},
{
closed = 1;
nodes = (
(281,316,o),
(349,421,o),
(277,374,cs),
(240,350,o),
(128,373,o),
(116,423,cs),
(107,459,o),
(39,319,o),
(48,285,cs),
(62,231,o),
(110,204,o),
(217,274,cs)
);
}
);
width = 408;
}
);
unicode = 112;
},
{
glyphname = q;
lastChange = "2023-11-23 11:15:50 +0000";
layers = (
{
background = {
shapes = (
{
closed = 1;
nodes = (
);
},
{
closed = 1;
nodes = (
);
}
);
};
layerId = m01;
shapes = (
{
closed = 1;
nodes = (
(206,345,o),
(151,285,o),
(163,260,cs),
(176,234,o),
(317,-9,o),
(317,-9,cs),
(331,-33,o),
(386,27,o),
(373,51,cs),
(365,65,o),
(238,281,o),
(219,320,cs)
);
},
{
closed = 1;
nodes = (
(264,76,o),
(417,250,o),
(422,308,cs),
(429,382,o),
(430,457,o),
(437,531,cs),
(441,584,o),
(422,667,o),
(373,704,cs),
(324,742,o),
(243,732,o),
(124,594,cs),
(49,506,o),
(80,474,o),
(160,566,cs),
(174,583,o),
(219,579,o),
(254,547,cs),
(282,521,o),
(303,478,o),
(297,415,cs),
(290,325,o),
(277,235,o),
(270,144,cs)
);
},
{
closed = 1;
nodes = (
(169,597,o),
(106,586,o),
(68,515,cs),
(17,420,o),
(34,312,o),
(23,221,cs),
(11,120,o),
(34,42,o),
(77,12,cs),
(108,-9,o),
(163,-52,o),
(265,74,cs),
(323,146,o),
(382,280,o),
(317,200,cs),
(265,136,o),
(178,131,o),
(151,150,cs),
(144,154,o),
(98,220,o),
(107,297,cs),
(119,399,o),
(120,505,o),
(132,527,cs)
);
}
);
width = 448;
}
);
unicode = 113;
},
{
glyphname = r;
lastChange = "2023-11-23 11:10:44 +0000";
layers = (
{
layerId = m01;
shapes = (
{
closed = 1;
nodes = (
(79,292,o),
(45,160,o),
(97,210,cs),
(150,261,o),
(217,279,o),
(259,251,cs),
(300,224,o),
(318,155,o),
(279,34,cs),
(252,-53,o),
(404,41,o),
(431,124,cs),
(498,336,o),
(405,416,o),
(295,411,cs),
(236,408,o),
(170,380,o),
(123,334,cs)
);
},
{
closed = 1;
nodes = (
(117,272,o),
(180,244,o),
(259,311,cs),
(485,504,o),
(468,661,o),
(377,702,cs),
(328,724,o),
(259,713,o),
(194,657,cs),
(140,610,o),
(90,531,o),
(59,414,cs),
(29,303,o),
(113,302,o),
(143,414,cs),
(177,541,o),
(256,576,o),
(292,552,cs),
(327,529,o),
(322,447,o),
(193,337,cs)
);
},
{
closed = 1;
nodes = (
(152,448,o),
(75,469,o),
(62,418,cs),
(37,318,o),
(25,26,o),
(25,19,cs),
(22,-26,o),
(101,23,o),
(103,63,cs),
(104,74,o),
(119,315,o),
(140,398,cs)
);
}
);
width = 498;
}
);
unicode = 114;
},
{
glyphname = s;
lastChange = "2023-11-23 11:10:44 +0000";
layers = (
{
guides = (
{
pos = (271,713);
}
);
layerId = m01;
shapes = (
{
closed = 1;
nodes = (
(50,270,o),
(-16,106,o),
(-3,80,cs),
(12,50,o),
(64,-5,o),
(130,-14,cs),
(182,-22,o),
(244,0,o),
(305,86,cs),
(478,333,o),
(380,352,o),
(275,420,cs),
(116,524,o),
(147,552,o),
(152,559,cs),
(161,572,o),
(206,571,o),
(253,549,cs),
(292,531,o),
(332,498,o),
(355,447,cs),
(366,422,o),
(429,592,o),
(419,613,cs),
(407,641,o),
(351,707,o),
(280,714,cs),
(234,718,o),
(181,698,o),
(130,625,cs),
(-25,404,o),
(46,358,o),
(151,290,cs),
(311,185,o),
(298,174,o),
(283,152,cs),
(273,138,o),
(237,136,o),
(195,147,cs),
(146,160,o),
(90,192,o),
(63,246,cs)
);
}
);
width = 435;
}
);
unicode = 115;
},
{
glyphname = t;
lastChange = "2023-11-23 11:10:44 +0000";
layers = (
{
layerId = m01;
shapes = (
{
closed = 1;
nodes = (
(445,541,o),
(513,708,o),
(471,701,cs),
(424,693,o),
(351,696,o),
(281,698,cs),
(203,701,o),
(129,701,o),
(96,684,cs),
(74,672,o),
(28,500,o),
(52,512,cs),
(78,526,o),
(143,527,o),
(214,527,cs),
(285,527,o),
(360,526,o),
(411,535,cs)
);
},
{
closed = 1;
nodes = (
(300,570,o),
(166,443,o),
(175,423,cs),
(188,393,o),
(127,82,o),
(160,2,cs),
(169,-18,o),
(300,113,o),
(292,132,cs),
(261,206,o),
(324,513,o),
(309,549,cs)
);
}
);
width = 454;
}
);
unicode = 116;
},
{
glyphname = u;
lastChange = "2023-11-23 11:10:44 +0000";
layers = (
{
layerId = m01;
shapes = (
{
closed = 1;
nodes = (
(158,730,o),
(30,604,o),
(47,583,cs),
(56,572,o),
(65,548,o),
(61,501,cs),
(52,401,o),
(44,301,o),
(36,201,cs),
(29,125,o),
(61,47,o),
(116,8,cs),
(149,-15,o),
(190,-23,o),
(236,-7,cs),
(349,33,o),
(407,149,o),
(424,246,cs),
(444,352,o),
(450,685,o),
(451,694,cs),
(452,737,o),
(373,690,o),
(371,648,cs),
(371,636,o),
(362,350,o),
(346,260,cs),
(323,136,o),
(276,117,o),
(274,117,cs),
(243,106,o),
(221,114,o),
(205,134,cs),
(181,165,o),
(175,226,o),
(180,295,cs),
(189,395,o),
(197,495,o),
(205,595,cs),
(211,662,o),
(188,692,o),
(175,709,cs)
);
}
);
width = 481;
}
);
unicode = 117;
},
{
glyphname = v;
lastChange = "2023-11-23 11:10:44 +0000";
layers = (
{
layerId = m01;
shapes = (
{
closed = 1;
nodes = (
(505,744,o),
(421,705,o),
(406,655,cs),
(348,472,o),
(235,101,o),
(222,45,cs),
(213,9,o),
(315,104,o),
(322,133,cs),
(331,171,o),
(436,526,o),
(488,691,cs)
);
},
{
closed = 1;
nodes = (
(190,-27,o),
(323,106,o),
(308,119,cs),
(290,133,o),
(271,144,o),
(257,229,cs),
(245,304,o),
(241,428,o),
(216,599,cs),
(206,666,o),
(190,707,o),
(162,714,cs),
(143,719,o),
(14,591,o),
(38,586,cs),
(50,583,o),
(71,546,o),
(80,481,cs),
(105,316,o),
(101,194,o),
(113,123,cs),
(128,28,o),
(150,5,o),
(174,-15,cs)
);
}
);
width = 475;
}
);
unicode = 118;
},
{
glyphname = w;
lastChange = "2023-11-23 11:10:44 +0000";
layers = (
{
guides = (
{
pos = (390,713);
}
);
layerId = m01;
shapes = (
{
closed = 1;
nodes = (
(365.713,-16.955,o),
(486.251,103.084,o),
(476.577,120.467,cs),
(448,171,o),
(440,284,o),
(434,399,cs),
(427,540,o),
(424,682,o),
(394.104,711.104,cs),
(380.591,724.087,o),
(259.186,605.029,o),
(273.896,590.896,cs),
(300,566,o),
(303,426,o),
(310,285,cs),
(316,170,o),
(326,54,o),
(355.423,1.533,cs)
);
},
{
closed = 1;
nodes = (
(717.929,743.518,o),
(626.967,701.974,o),
(600.75,642.75,cs),
(572,579,o),
(548,518,o),
(527,460,cs),
(439,223,o),
(407,54,o),
(406.494,49.698,cs),
(399.576,17.289,o),
(495.311,119.277,o),
(501.506,148.302,cs),
(503,156,o),
(530,273,o),
(600,459,cs),
(625,525,o),
(655,601,o),
(691.25,683.25,cs)
);
},
{
closed = 1;
nodes = (
(128.713,-16.955,o),
(249.251,103.084,o),
(239.577,120.467,cs),
(208,177,o),
(200,313,o),
(194,441,cs),
(188,567,o),
(182,685,o),
(156.104,711.104,cs),
(142.681,724.259,o),
(21.324,605.176,o),
(35.896,590.896,cs),
(59,568,o),
(64,449,o),
(70,322,cs),
(77,195,o),
(86,60,o),
(118.423,1.533,cs)
);
},
{
closed = 1;
nodes = (
(428.374,636.997,o),
(335.055,611.549,o),
(323.568,586.767,cs),
(296,528,o),
(274,468,o),
(257,410,cs),
(201,231,o),
(189,79,o),
(187.829,72.571,cs),
(182.774,44.495,o),
(233.319,84.485,o),
(238.171,111.429,cs),
(239,114,o),
(274,247,o),
(332,405,cs),
(357,472,o),
(385,543,o),
(416.432,611.233,cs)
);
}
);
width = 656;
}
);
unicode = 119;
},
{
glyphname = x;
lastChange = "2023-11-23 11:10:44 +0000";
layers = (
{
layerId = m01;
shapes = (
{
closed = 1;
nodes = (
(530,685,o),
(514,701,o),
(491,701,cs),
(473,701,o),
(450,691,o),
(436,670,cs),
(426,654,o),
(351,546,o),
(267,425,cs),
(146,249,o),
(4,45,o),
(4,45,cs),
(-13,21,o),
(-3,5,o),
(16,2,cs),
(35,-2,o),
(61,7,o),
(78,31,cs),
(87,44,o),
(190,192,o),
(293,342,cs),
(392,484,o),
(492,628,o),
(512,658,cs)
);
},
{
closed = 1;
nodes = (
(384,2,o),
(411,30,o),
(436,61,cs),
(467,101,o),
(494,145,o),
(478,142,cs),
(444,137,o),
(381,286,o),
(316,432,cs),
(254,571,o),
(191,707,o),
(153,698,cs),
(144,696,o),
(126,678,o),
(106,656,cs),
(69,612,o),
(28,551,o),
(49,556,cs),
(80,563,o),
(138,435,o),
(198,300,cs),
(264,151,o),
(333,-7,o),
(372,0,cs)
);
}
);
width = 515;
}
);
unicode = 120;
},
{
glyphname = y;
lastChange = "2023-11-23 11:10:44 +0000";
layers = (
{
layerId = m01;
shapes = (
{
closed = 1;
nodes = (
(552,691,o),
(542,708,o),
(522,710,cs),
(502,712,o),
(473,697,o),
(454,665,cs),
(446,651,o),
(385,535,o),
(319,407,cs),
(231,237,o),
(133,48,o),
(133,47,cs),
(118,18,o),
(127,3,o),
(145,1,cs),
(166,-2,o),
(199,14,o),
(217,49,cs),
(224,63,o),
(314,238,o),
(397,397,cs),
(462,523,o),
(523,640,o),
(534,659,cs)
);
},
{
closed = 1;
nodes = (
(273,329,o),
(388,457,o),
(340,434,cs),
(299,416,o),
(264,521,o),
(225,607,cs),
(196,670,o),
(167,722,o),
(132,710,cs),
(119,705,o),
(95,685,o),
(71,662,cs),
(31,622,o),
(-8,573,o),
(18,582,cs),
(54,595,o),
(84,504,o),
(120,424,cs),
(151,352,o),
(186,288,o),
(232,310,cs)
);
}
);
width = 480;
}
);
unicode = 121;
},
{
glyphname = z;
lastChange = "2023-11-23 11:10:44 +0000";
layers = (
{
layerId = m01;
shapes = (
{
closed = 1;
nodes = (
(9,117,o),
(-32,-49,o),
(18,-5,cs),
(63,34,o),
(127,47,o),
(189,42,cs),
(243,38,o),
(295,19,o),
(330,-8,cs),
(346,-21,o),
(408,148,o),
(392,160,cs),
(359,187,o),
(305,208,o),
(246,214,cs),
(180,219,o),
(108,205,o),
(50,153,cs)
);
},
{
closed = 1;
nodes = (
(124,736,o),
(59,569,o),
(74,550,cs),
(96,523,o),
(145,504,o),
(200,500,cs),
(266,494,o),
(341,509,o),
(389,552,cs),
(415,575,o),
(470,744,o),
(439,716,cs),
(399,681,o),
(326,667,o),
(261,671,cs),
(208,675,o),
(159,691,o),
(138,718,cs)
);
},
{
closed = 1;
nodes = (
(430,635,o),
(346,630,o),
(325,581,cs),
(297,515,o),
(237,432,o),
(177,348,cs),
(111,255,o),
(45,162,o),
(23,94,cs),
(6,44,o),
(94,57,o),
(109,104,cs),
(124,150,o),
(181,228,o),
(243,315,cs),
(306,405,o),
(374,503,o),
(409,585,cs)
);
}
);
width = 453;
}
);
unicode = 122;
},
{
export = 0;
glyphname = d.001;
lastChange = "2023-11-22 22:20:39 +0000";
layers = (
{
layerId = m01;
shapes = (
{
closed = 1;
nodes = (
(106.063,737.75,o),
(42.396,569.92,o),
(59.523,556.812,cs),
(335.474,345.615,o),
(411.724,199.98,o),
(322.84,14.805,cs),
(298.886,-35.1,o),
(424.405,73.79,o),
(447.16,121.195,cs),
(551.617,338.815,o),
(400.343,512.526,o),
(122.477,725.188,cs)
);
},
{
closed = 1;
nodes = (
(179.961,590.719,o),
(104.185,569.068,o),
(101.124,547.26,cs),
(79.791,395.26,o),
(58.457,243.26,o),
(37.124,91.26,cs),
(34.002,69.014,o),
(109.942,91.833,o),
(112.876,112.74,cs),
(134.209,264.74,o),
(155.543,416.74,o),
(176.876,568.74,cs)
);
},
{
closed = 1;
nodes = (
(73.098,222.804,o),
(9.433,54.976,o),
(26.523,41.812,cs),
(101.943,-16.282,o),
(237.779,-23.622,o),
(325.646,2.942,cs),
(346.623,9.285,o),
(404.928,180.487,o),
(380.354,173.058,cs),
(296.221,147.622,o),
(162.057,154.282,o),
(89.477,210.188,cs)
);
}
);
width = 492;
}
);
},
{
glyphname = period;
lastChange = "2023-11-22 22:20:39 +0000";
layers = (
{
layerId = m01;
shapes = (
{
closed = 1;
nodes = (
(253.585,157.09,o),
(193.614,-13.797,o),
(220.473,2.003,cs),
(233.831,9.86,o),
(291.03,-7.92,o),
(321.165,1.433,cs),
(341.844,7.85,o),
(403.345,178.174,o),
(378.835,170.567,cs),
(350.97,161.92,o),
(296.169,182.14,o),
(275.527,169.997,cs)
);
}
);
width = 600;
}
);
unicode = 46;
},
{
glyphname = comma;
lastChange = "2023-11-22 22:20:39 +0000";
layers = (
{
layerId = m01;
shapes = (
{
closed = 1;
nodes = (
(265.058,165.725,o),
(204.392,-3.725,o),
(224.998,-3.725,cs),
(276.733,-3.725,o),
(286.335,-54.266,o),
(276.449,-95.928,cs),
(262.854,-153.223,o),
(344.722,-76.137,o),
(357.551,-22.072,cs),
(375.823,54.931,o),
(347.229,165.725,o),
(285.002,165.725,cs)
);
}
);
width = 600;
}
);
unicode = 44;
},
{
glyphname = semicolon;
lastChange = "2023-11-22 22:20:39 +0000";
layers = (
{
layerId = m01;
shapes = (
{
closed = 1;
nodes = (
(253.585,469.09,o),
(193.614,298.203,o),
(220.473,314.003,cs),
(233.831,321.86,o),
(291.03,304.08,o),
(321.165,313.433,cs),
(341.844,319.85,o),
(403.345,490.174,o),
(378.835,482.567,cs),
(350.97,473.92,o),
(296.169,494.14,o),
(275.527,481.997,cs)
);
},
{
closed = 1;
nodes = (
(265.058,165.725,o),
(204.392,-3.725,o),
(224.998,-3.725,cs),
(276.733,-3.725,o),
(286.335,-54.266,o),
(276.449,-95.928,cs),
(262.854,-153.223,o),
(344.722,-76.137,o),
(357.551,-22.072,cs),
(375.823,54.931,o),
(347.229,165.725,o),
(285.002,165.725,cs)
);
}
);
width = 600;
}
);
unicode = 59;
},
{
glyphname = hyphen;
lastChange = "2023-11-22 22:20:39 +0000";
layers = (
{
layerId = m01;
shapes = (
{
closed = 1;
nodes = (
(381.226,235.155,o),
(426.428,408.629,o),
(398.23,383.636,cs),
(358.984,348.849,o),
(157.211,421.454,o),
(94.872,361.302,cs),
(71.411,338.664,o),
(26.825,165.388,o),
(55.128,192.698,cs),
(106.789,242.546,o),
(309.016,171.151,o),
(357.77,214.364,cs)
);
}
